<?xml version="1.0" encoding="UTF-8"?>
<!DOCTYPE svg PUBLIC "-//W3C//DTD SVG 1.1//EN" "http://www.w3.org/Graphics/SVG/1.1/DTD/svg11.dtd">
<svg version="1.2" width="14.15mm" height="10.16mm" viewBox="14993 11873 1415 1016" preserveAspectRatio="xMidYMid" fill-rule="evenodd" stroke-width="28.222" stroke-linejoin="round" xmlns="http://www.w3.org/2000/svg" xmlns:ooo="http://xml.openoffice.org/svg/export" xmlns:xlink="http://www.w3.org/1999/xlink" xmlns:presentation="http://sun.com/xmlns/staroffice/presentation" xmlns:smil="http://www.w3.org/2001/SMIL20/" xmlns:anim="urn:oasis:names:tc:opendocument:xmlns:animation:1.0" xmlns:svg="urn:oasis:names:tc:opendocument:xmlns:svg-compatible:1.0" xml:space="preserve">
 <defs class="EmbeddedBulletChars">
  <g id="bullet-char-template-57356" transform="scale(0.00048828125,-0.00048828125)">
   <path d="M 580,1141 L 1163,571 580,0 -4,571 580,1141 Z"/>
  </g>
  <g id="bullet-char-template-57354" transform="scale(0.00048828125,-0.00048828125)">
   <path d="M 8,1128 L 1137,1128 1137,0 8,0 8,1128 Z"/>
  </g>
  <g id="bullet-char-template-10146" transform="scale(0.00048828125,-0.00048828125)">
   <path d="M 174,0 L 602,739 174,1481 1456,739 174,0 Z M 1358,739 L 309,1346 659,739 1358,739 Z"/>
  </g>
  <g id="bullet-char-template-10132" transform="scale(0.00048828125,-0.00048828125)">
   <path d="M 2015,739 L 1276,0 717,0 1260,543 174,543 174,936 1260,936 717,1481 1274,1481 2015,739 Z"/>
  </g>
  <g id="bullet-char-template-10007" transform="scale(0.00048828125,-0.00048828125)">
   <path d="M 0,-2 C -7,14 -16,27 -25,37 L 356,567 C 262,823 215,952 215,954 215,979 228,992 255,992 264,992 276,990 289,987 310,991 331,999 354,1012 L 381,999 492,748 772,1049 836,1024 860,1049 C 881,1039 901,1025 922,1006 886,937 835,863 770,784 769,783 710,716 594,584 L 774,223 C 774,196 753,168 711,139 L 727,119 C 717,90 699,76 672,76 641,76 570,178 457,381 L 164,-76 C 142,-110 111,-127 72,-127 30,-127 9,-110 8,-76 1,-67 -2,-52 -2,-32 -2,-23 -1,-13 0,-2 Z"/>
  </g>
  <g id="bullet-char-template-10004" transform="scale(0.00048828125,-0.00048828125)">
   <path d="M 285,-33 C 182,-33 111,30 74,156 52,228 41,333 41,471 41,549 55,616 82,672 116,743 169,778 240,778 293,778 328,747 346,684 L 369,508 C 377,444 397,411 428,410 L 1163,1116 C 1174,1127 1196,1133 1229,1133 1271,1133 1292,1118 1292,1087 L 1292,965 C 1292,929 1282,901 1262,881 L 442,47 C 390,-6 338,-33 285,-33 Z"/>
  </g>
  <g id="bullet-char-template-9679" transform="scale(0.00048828125,-0.00048828125)">
   <path d="M 813,0 C 632,0 489,54 383,161 276,268 223,411 223,592 223,773 276,916 383,1023 489,1130 632,1184 813,1184 992,1184 1136,1130 1245,1023 1353,916 1407,772 1407,592 1407,412 1353,268 1245,161 1136,54 992,0 813,0 Z"/>
  </g>
  <g id="bullet-char-template-8226" transform="scale(0.00048828125,-0.00048828125)">
   <path d="M 346,457 C 273,457 209,483 155,535 101,586 74,649 74,723 74,796 101,859 155,911 209,963 273,989 346,989 419,989 480,963 531,910 582,859 608,796 608,723 608,648 583,586 532,535 482,483 420,457 346,457 Z"/>
  </g>
  <g id="bullet-char-template-8211" transform="scale(0.00048828125,-0.00048828125)">
   <path d="M -4,459 L 1135,459 1135,606 -4,606 -4,459 Z"/>
  </g>
  <g id="bullet-char-template-61548" transform="scale(0.00048828125,-0.00048828125)">
   <path d="M 173,740 C 173,903 231,1043 346,1159 462,1274 601,1332 765,1332 928,1332 1067,1274 1183,1159 1299,1043 1357,903 1357,740 1357,577 1299,437 1183,322 1067,206 928,148 765,148 601,148 462,206 346,322 231,437 173,577 173,740 Z"/>
  </g>
 </defs>
 <g class="Page">
  <g class="Group">
   <g class="com.sun.star.drawing.PolyPolygonShape">
    <g id="id3">
     <rect class="BoundingBox" stroke="none" fill="none" x="15393" y="11891" width="495" height="978"/>
     <path fill="rgb(0,0,0)" stroke="none" d="M 15400,12861 L 15400,12793 15476,12793 15476,11967 15400,11967 15400,11898 15633,11898 15633,11967 15557,11967 15557,12782 15830,12782 15830,12621 15880,12621 15880,12861 15400,12861 Z"/>
     <path fill="none" stroke="rgb(255,255,255)" stroke-width="14" stroke-linejoin="round" d="M 15400,12861 L 15400,12793 15476,12793 15476,11967 15400,11967 15400,11898 15633,11898 15633,11967 15557,11967 15557,12782 15830,12782 15830,12621 15880,12621 15880,12861 15400,12861 Z"/>
    </g>
   </g>
   <g class="com.sun.star.drawing.PolyPolygonShape">
    <g id="id4">
     <rect class="BoundingBox" stroke="none" fill="none" x="15960" y="11873" width="448" height="1016"/>
     <path fill="rgb(0,0,0)" stroke="none" d="M 15974,12815 L 15974,12596 16020,12596 16021,12622 16023,12647 16027,12670 16029,12681 16031,12691 16034,12701 16037,12711 16040,12720 16043,12728 16047,12736 16051,12744 16055,12751 16060,12758 16065,12764 16070,12770 16075,12776 16081,12781 16087,12786 16093,12790 16107,12797 16122,12803 16138,12807 16155,12810 16174,12811 16191,12810 16207,12808 16222,12804 16236,12799 16249,12793 16261,12785 16267,12781 16272,12776 16277,12771 16282,12765 16287,12759 16291,12753 16295,12747 16299,12740 16302,12733 16305,12725 16308,12717 16310,12709 16313,12701 16314,12692 16316,12683 16317,12673 16318,12664 16319,12654 16320,12633 16319,12616 16318,12600 16317,12585 16314,12571 16313,12564 16311,12558 16309,12552 16307,12546 16305,12541 16302,12535 16300,12530 16297,12525 16294,12521 16291,12516 16283,12507 16273,12498 16262,12488 16249,12479 16235,12470 16202,12452 16123,12414 16102,12404 16083,12392 16066,12380 16050,12367 16035,12354 16023,12340 16012,12325 16007,12318 16002,12310 15998,12302 15994,12293 15990,12285 15987,12276 15984,12266 15981,12256 15976,12236 15972,12213 15969,12190 15968,12165 15967,12138 15968,12108 15969,12094 15970,12080 15972,12067 15975,12054 15977,12041 15981,12029 15984,12018 15988,12006 15993,11995 15997,11985 16003,11975 16008,11966 16014,11956 16021,11948 16028,11940 16035,11932 16043,11925 16051,11918 16068,11906 16086,11897 16106,11890 16127,11884 16149,11881 16173,11880 16194,11881 16216,11884 16240,11888 16264,11895 16289,11903 16315,11912 16342,11924 16370,11937 16370,12142 16324,12142 16322,12117 16319,12095 16315,12073 16311,12054 16308,12045 16305,12037 16302,12029 16298,12021 16295,12014 16291,12007 16287,12000 16282,11995 16278,11989 16273,11984 16268,11979 16262,11975 16250,11967 16238,11960 16224,11955 16208,11952 16192,11950 16174,11949 16159,11950 16145,11952 16131,11955 16119,11959 16107,11965 16096,11972 16092,11977 16087,11981 16082,11986 16078,11991 16074,11996 16070,12002 16067,12008 16064,12014 16061,12020 16058,12027 16056,12034 16053,12042 16051,12049 16050,12057 16048,12066 16047,12074 16046,12092 16045,12112 16045,12129 16047,12144 16049,12159 16051,12173 16053,12180 16055,12186 16057,12193 16059,12199 16061,12204 16064,12210 16067,12215 16070,12220 16073,12225 16077,12230 16086,12240 16096,12250 16109,12259 16123,12269 16138,12279 16175,12298 16249,12334 16269,12344 16287,12355 16304,12366 16319,12378 16333,12391 16345,12405 16356,12419 16365,12434 16369,12442 16373,12450 16377,12458 16380,12467 16383,12476 16386,12486 16391,12505 16395,12527 16398,12549 16399,12573 16400,12598 16399,12632 16396,12663 16394,12678 16392,12693 16389,12707 16386,12720 16382,12733 16378,12746 16373,12758 16368,12769 16363,12780 16357,12790 16351,12800 16344,12809 16337,12817 16329,12825 16321,12833 16313,12840 16295,12852 16275,12862 16253,12870 16230,12875 16205,12879 16178,12880 16154,12879 16129,12876 16103,12871 16078,12864 16052,12854 16027,12843 16001,12830 15974,12815 Z"/>
     <path fill="none" stroke="rgb(255,255,255)" stroke-width="14" stroke-linejoin="round" d="M 15974,12815 L 15974,12596 16020,12596 16021,12622 16023,12647 16027,12670 16029,12681 16031,12691 16034,12701 16037,12711 16040,12720 16043,12728 16047,12736 16051,12744 16055,12751 16060,12758 16065,12764 16070,12770 16075,12776 16081,12781 16087,12786 16093,12790 16107,12797 16122,12803 16138,12807 16155,12810 16174,12811 16191,12810 16207,12808 16222,12804 16236,12799 16249,12793 16261,12785 16267,12781 16272,12776 16277,12771 16282,12765 16287,12759 16291,12753 16295,12747 16299,12740 16302,12733 16305,12725 16308,12717 16310,12709 16313,12701 16314,12692 16316,12683 16317,12673 16318,12664 16319,12654 16320,12633 16319,12616 16318,12600 16317,12585 16314,12571 16313,12564 16311,12558 16309,12552 16307,12546 16305,12541 16302,12535 16300,12530 16297,12525 16294,12521 16291,12516 16283,12507 16273,12498 16262,12488 16249,12479 16235,12470 16202,12452 16123,12414 16102,12404 16083,12392 16066,12380 16050,12367 16035,12354 16023,12340 16012,12325 16007,12318 16002,12310 15998,12302 15994,12293 15990,12285 15987,12276 15984,12266 15981,12256 15976,12236 15972,12213 15969,12190 15968,12165 15967,12138 15968,12108 15969,12094 15970,12080 15972,12067 15975,12054 15977,12041 15981,12029 15984,12018 15988,12006 15993,11995 15997,11985 16003,11975 16008,11966 16014,11956 16021,11948 16028,11940 16035,11932 16043,11925 16051,11918 16068,11906 16086,11897 16106,11890 16127,11884 16149,11881 16173,11880 16194,11881 16216,11884 16240,11888 16264,11895 16289,11903 16315,11912 16342,11924 16370,11937 16370,12142 16324,12142 16322,12117 16319,12095 16315,12073 16311,12054 16308,12045 16305,12037 16302,12029 16298,12021 16295,12014 16291,12007 16287,12000 16282,11995 16278,11989 16273,11984 16268,11979 16262,11975 16250,11967 16238,11960 16224,11955 16208,11952 16192,11950 16174,11949 16159,11950 16145,11952 16131,11955 16119,11959 16107,11965 16096,11972 16092,11977 16087,11981 16082,11986 16078,11991 16074,11996 16070,12002 16067,12008 16064,12014 16061,12020 16058,12027 16056,12034 16053,12042 16051,12049 16050,12057 16048,12066 16047,12074 16046,12092 16045,12112 16045,12129 16047,12144 16049,12159 16051,12173 16053,12180 16055,12186 16057,12193 16059,12199 16061,12204 16064,12210 16067,12215 16070,12220 16073,12225 16077,12230 16086,12240 16096,12250 16109,12259 16123,12269 16138,12279 16175,12298 16249,12334 16269,12344 16287,12355 16304,12366 16319,12378 16333,12391 16345,12405 16356,12419 16365,12434 16369,12442 16373,12450 16377,12458 16380,12467 16383,12476 16386,12486 16391,12505 16395,12527 16398,12549 16399,12573 16400,12598 16399,12632 16396,12663 16394,12678 16392,12693 16389,12707 16386,12720 16382,12733 16378,12746 16373,12758 16368,12769 16363,12780 16357,12790 16351,12800 16344,12809 16337,12817 16329,12825 16321,12833 16313,12840 16295,12852 16275,12862 16253,12870 16230,12875 16205,12879 16178,12880 16154,12879 16129,12876 16103,12871 16078,12864 16052,12854 16027,12843 16001,12830 15974,12815 Z"/>
    </g>
   </g>
  </g>
  <g class="com.sun.star.drawing.PolyPolygonShape">
   <g id="id5">
    <rect class="BoundingBox" stroke="none" fill="none" x="14993" y="12406" width="387" height="466"/>
    <path fill="rgb(0,0,0)" stroke="none" d="M 15210,12864 L 15317,12864 15317,12574 15371,12574 15371,12542 15260,12542 15260,12599 15256,12592 15252,12584 15247,12577 15242,12571 15237,12565 15232,12560 15227,12555 15221,12551 15215,12547 15209,12543 15203,12540 15197,12538 15191,12536 15184,12535 15177,12534 15170,12534 15166,12534 15162,12534 15158,12535 15153,12535 15150,12536 15146,12537 15142,12538 15138,12539 15135,12541 15131,12542 15128,12544 15124,12546 15121,12548 15118,12550 15115,12553 15111,12555 15111,12446 15165,12446 15165,12414 15000,12414 15000,12446 15054,12446 15054,12832 15003,12832 15003,12864 15111,12864 15111,12677 15112,12663 15112,12650 15114,12638 15115,12627 15117,12618 15120,12610 15121,12606 15123,12602 15125,12599 15126,12596 15128,12594 15130,12591 15133,12589 15135,12587 15138,12585 15141,12583 15144,12581 15147,12580 15150,12579 15154,12578 15158,12577 15161,12576 15170,12575 15179,12575 15188,12575 15193,12576 15197,12576 15202,12577 15206,12579 15210,12580 15214,12582 15217,12584 15221,12586 15224,12588 15228,12591 15231,12593 15234,12596 15237,12600 15239,12603 15242,12607 15244,12610 15248,12619 15252,12628 15255,12638 15257,12649 15259,12660 15260,12672 15260,12686 15260,12832 15210,12832 15210,12864 Z"/>
    <path fill="none" stroke="rgb(255,255,255)" stroke-width="14" stroke-linejoin="round" d="M 15210,12864 L 15317,12864 15317,12574 15371,12574 15371,12542 15260,12542 15260,12599 15256,12592 15252,12584 15247,12577 15242,12571 15237,12565 15232,12560 15227,12555 15221,12551 15215,12547 15209,12543 15203,12540 15197,12538 15191,12536 15184,12535 15177,12534 15170,12534 15166,12534 15162,12534 15158,12535 15153,12535 15150,12536 15146,12537 15142,12538 15138,12539 15135,12541 15131,12542 15128,12544 15124,12546 15121,12548 15118,12550 15115,12553 15111,12555 15111,12446 15165,12446 15165,12414 15000,12414 15000,12446 15054,12446 15054,12832 15003,12832 15003,12864 15111,12864 15111,12677 15112,12663 15112,12650 15114,12638 15115,12627 15117,12618 15120,12610 15121,12606 15123,12602 15125,12599 15126,12596 15128,12594 15130,12591 15133,12589 15135,12587 15138,12585 15141,12583 15144,12581 15147,12580 15150,12579 15154,12578 15158,12577 15161,12576 15170,12575 15179,12575 15188,12575 15193,12576 15197,12576 15202,12577 15206,12579 15210,12580 15214,12582 15217,12584 15221,12586 15224,12588 15228,12591 15231,12593 15234,12596 15237,12600 15239,12603 15242,12607 15244,12610 15248,12619 15252,12628 15255,12638 15257,12649 15259,12660 15260,12672 15260,12686 15260,12832 15210,12832 15210,12864 Z"/>
   </g>
  </g>
  <g class="com.sun.star.drawing.PolyPolygonShape">
   <g id="id6">
    <rect class="BoundingBox" stroke="none" fill="none" x="14993" y="11893" width="387" height="477"/>
    <path fill="rgb(0,0,0)" stroke="none" d="M 15161,11900 L 15054,11900 15054,12198 15000,12198 15000,12230 15111,12230 15111,12172 15115,12180 15119,12187 15124,12194 15129,12201 15134,12207 15139,12212 15144,12217 15150,12222 15156,12226 15162,12229 15168,12232 15174,12235 15180,12237 15187,12238 15194,12239 15201,12239 15205,12239 15209,12239 15213,12238 15218,12238 15221,12237 15225,12236 15229,12235 15233,12234 15236,12232 15240,12230 15243,12229 15247,12227 15250,12224 15253,12222 15256,12220 15260,12217 15260,12329 15206,12329 15206,12362 15371,12362 15371,12329 15317,12329 15317,11933 15368,11933 15368,11900 15260,11900 15260,12092 15259,12107 15259,12120 15257,12132 15256,12143 15254,12153 15251,12161 15250,12165 15248,12169 15246,12172 15245,12175 15243,12178 15241,12180 15238,12182 15236,12185 15233,12187 15230,12188 15227,12190 15224,12192 15221,12193 15217,12194 15213,12195 15210,12196 15201,12197 15192,12197 15183,12197 15178,12196 15174,12195 15169,12194 15165,12193 15161,12192 15157,12190 15154,12188 15150,12186 15147,12183 15143,12181 15140,12178 15137,12175 15134,12172 15132,12168 15129,12164 15127,12160 15123,12152 15119,12142 15116,12132 15114,12121 15112,12109 15111,12097 15111,12083 15111,11933 15161,11933 15161,11900 Z"/>
    <path fill="none" stroke="rgb(255,255,255)" stroke-width="14" stroke-linejoin="round" d="M 15161,11900 L 15054,11900 15054,12198 15000,12198 15000,12230 15111,12230 15111,12172 15115,12180 15119,12187 15124,12194 15129,12201 15134,12207 15139,12212 15144,12217 15150,12222 15156,12226 15162,12229 15168,12232 15174,12235 15180,12237 15187,12238 15194,12239 15201,12239 15205,12239 15209,12239 15213,12238 15218,12238 15221,12237 15225,12236 15229,12235 15233,12234 15236,12232 15240,12230 15243,12229 15247,12227 15250,12224 15253,12222 15256,12220 15260,12217 15260,12329 15206,12329 15206,12362 15371,12362 15371,12329 15317,12329 15317,11933 15368,11933 15368,11900 15260,11900 15260,12092 15259,12107 15259,12120 15257,12132 15256,12143 15254,12153 15251,12161 15250,12165 15248,12169 15246,12172 15245,12175 15243,12178 15241,12180 15238,12182 15236,12185 15233,12187 15230,12188 15227,12190 15224,12192 15221,12193 15217,12194 15213,12195 15210,12196 15201,12197 15192,12197 15183,12197 15178,12196 15174,12195 15169,12194 15165,12193 15161,12192 15157,12190 15154,12188 15150,12186 15147,12183 15143,12181 15140,12178 15137,12175 15134,12172 15132,12168 15129,12164 15127,12160 15123,12152 15119,12142 15116,12132 15114,12121 15112,12109 15111,12097 15111,12083 15111,11933 15161,11933 15161,11900 Z"/>
   </g>
  </g>
 </g>
</svg>